# Blender 3.6.5
# www.blender.org
mtllib boltgun.mtl
o Bolt
v -1.271314 0.118397 0.160602
v -1.271314 0.377285 0.160602
v 0.796604 0.118397 0.160602
v 0.391501 0.268327 -0.075665
v 0.796604 0.377285 0.160602
v 0.796604 0.118397 -0.160602
v 0.471906 0.377285 0.144542
v 0.343538 0.118397 -0.160602
v 0.150284 0.268327 -0.075665
v 0.531281 0.377285 0.000000
v 0.293990 0.118397 0.160602
v 0.416967 0.282217 -0.075665
v 0.343538 0.118397 0.160602
v 0.343538 0.377285 0.160602
v 0.293990 0.377285 0.160602
v 0.293990 0.118397 0.144542
v 0.110928 0.305368 -0.075665
v 0.343538 0.118397 0.144542
v 0.343538 0.377285 0.144542
v 0.293990 0.377285 0.144542
v 0.471906 0.377285 0.160602
v 0.415524 0.377285 0.160602
v 0.413854 0.118397 0.160602
v 0.469114 0.118397 0.160602
v 0.528287 0.118397 0.160602
v 0.531636 0.377285 0.160602
v 0.471794 0.377285 0.000000
v 0.590767 0.118397 -0.160602
v 0.415524 0.377285 0.000000
v 0.651735 0.118397 -0.160602
v -1.271314 0.118397 0.000000
v -1.271314 0.377285 0.000000
v 0.343538 0.377285 0.000000
v 0.293990 0.377285 0.000000
v 0.293990 0.118397 0.000000
v 0.343538 0.118397 0.000000
v 0.796604 0.118397 0.000000
v 0.796604 0.377285 0.000000
v 0.415524 0.377285 0.144542
v 0.413854 0.118397 0.144542
v 0.469114 0.118397 0.144542
v 0.632084 0.346449 0.064001
v 0.648831 0.427220 0.064001
v 0.760086 0.346449 0.064001
v 0.738315 0.427220 0.064001
v 0.632084 0.375736 0.000000
v -1.198333 0.427220 0.018288
v 0.760086 0.375736 0.000000
v -1.260069 0.370305 0.024848
v 0.648831 0.427220 0.028540
v 0.644365 0.414342 0.028540
v 0.746688 0.414342 0.028540
v 0.738315 0.427220 0.028540
v -1.086435 0.370305 0.024848
v -1.133701 0.427220 0.018288
v -1.260069 0.370305 0.000000
v -1.198333 0.427220 0.000000
v -1.086435 0.370305 0.000000
v -1.133701 0.427220 0.000000
v -1.271314 0.118397 -0.160602
v -1.271314 0.377285 -0.160602
v 0.796604 0.377285 -0.160602
v 0.471906 0.377285 -0.144542
v 0.293990 0.118397 -0.160602
v 0.293990 0.118397 -0.144542
v 0.343538 0.118397 -0.144542
v 0.471906 0.377285 -0.160602
v 0.413854 0.118397 -0.160602
v 0.469114 0.118397 -0.160602
v 0.528287 0.118397 -0.160602
v 0.531636 0.377285 -0.160602
v 0.590767 0.118397 0.160602
v 0.651735 0.118397 0.160602
v 0.413854 0.118397 -0.144542
v 0.469114 0.118397 -0.144542
v 0.632084 0.346449 -0.064001
v 0.648831 0.427220 -0.064001
v 0.760086 0.346449 -0.064001
v 0.738315 0.427220 -0.064001
v -1.198333 0.427220 -0.018288
v -1.260069 0.370305 -0.024848
v 0.648831 0.427220 -0.028540
v 0.644365 0.414342 -0.028540
v 0.746688 0.414342 -0.028540
v 0.738315 0.427220 -0.028540
v -1.086435 0.370305 -0.024848
v -1.133701 0.427220 -0.018288
v 0.110928 0.305368 -0.160602
v 0.110928 0.377285 -0.160602
v 0.150284 0.268327 -0.160602
v 0.293990 0.268327 -0.160602
v 0.110928 0.377285 -0.075665
v 0.162717 0.377285 -0.075665
v 0.293990 0.377285 -0.075665
v 0.416967 0.282217 -0.144542
v 0.414904 0.281092 -0.144542
v 0.416967 0.377285 -0.144542
v 0.343538 0.377285 -0.075665
v 0.293990 0.268327 -0.144542
v 0.343538 0.268327 -0.144542
v 0.343538 0.268327 -0.160602
v 0.415524 0.377285 -0.075665
v 0.415524 0.377285 -0.075665
v 0.414904 0.281092 -0.160602
v 0.391501 0.268327 -0.160602
v 0.396447 0.377285 -0.075665
v 0.391501 0.377285 -0.075665
v 0.416967 0.377285 -0.075665
vn 1.0000 -0.0000 -0.0000
vn -0.0000 -0.0000 1.0000
vn -0.0000 -1.0000 -0.0000
vn -0.0000 1.0000 -0.0000
vn -1.0000 -0.0000 -0.0000
vn -0.9999 0.0108 -0.0000
vn 1.0000 -0.0065 -0.0000
vn 0.0004 -1.0000 -0.0000
vn -0.0000 -0.9093 -0.4161
vn -0.0000 0.5945 -0.8041
vn 0.9541 0.2773 0.1135
vn 0.0504 0.4505 -0.8913
vn -0.0866 0.4450 -0.8913
vn 0.0866 -0.4450 -0.8913
vn -0.0503 -0.4505 -0.8913
vn -0.9714 0.2255 0.0740
vn 0.7693 0.6389 -0.0000
vn -0.0000 0.1145 0.9934
vn -0.6778 0.7352 -0.0000
vn -0.0000 -0.0000 -1.0000
vn -0.0000 -0.9093 0.4161
vn -0.0000 0.5945 0.8041
vn 0.9541 0.2773 -0.1135
vn 0.0504 0.4505 0.8913
vn -0.0503 -0.4505 0.8913
vn 0.0866 -0.4450 0.8913
vn -0.0866 0.4450 0.8913
vn -0.9714 0.2255 -0.0740
vn -0.0000 0.1145 -0.9934
vn -0.4789 0.8779 -0.0000
vn 0.6854 0.7282 -0.0000
vt 0.375000 0.625000
vt 0.625000 0.625000
vt 0.625000 0.750000
vt 0.375000 0.750000
vt 0.375000 0.850321
vt 0.625000 0.850321
vt 0.625000 1.000000
vt 0.375000 1.000000
vt 0.358012 0.625000
vt 0.358012 0.500000
vt 0.367282 0.500000
vt 0.369568 0.500000
vt 0.375000 0.500000
vt 0.364939 0.750000
vt 0.362721 0.750000
vt 0.360649 0.750000
vt 0.358012 0.750000
vt 0.725321 0.625000
vt 0.875000 0.625000
vt 0.875000 0.750000
vt 0.725321 0.750000
vt 0.375000 0.762279
vt 0.625000 0.762175
vt 0.625000 0.764289
vt 0.375000 0.764351
vt 0.125000 0.625000
vt 0.274679 0.625000
vt 0.274679 0.750000
vt 0.125000 0.750000
vt 0.625000 0.759935
vt 0.375000 0.760061
vt 0.641988 0.625000
vt 0.641988 0.750000
vt 0.375000 0.766988
vt 0.625000 0.766988
vt 0.639289 0.737500
vt 0.639289 0.625000
vt 0.639289 0.750000
vt 0.375000 0.000000
vt 0.625000 0.000000
vt 0.625000 0.125000
vt 0.375000 0.125000
vt 0.634948 0.625000
vt 0.634935 0.750000
vt 0.637179 0.625000
vt 0.637175 0.750000
vt 0.563137 0.125000
vt 0.563137 0.625000
vt 0.625000 0.701385
vt 0.875000 0.701385
vt 0.625000 0.048615
vt 0.625000 0.867826
vt 0.555552 0.867826
vt 0.519782 0.864063
vt 0.519782 0.850321
vt 0.725321 0.683891
vt 0.737874 0.683891
vt 0.742826 0.683891
vt 0.742826 0.750000
vt 0.532110 0.764312
vt 0.533196 0.764235
vt 0.625000 0.764235
vt 0.725321 0.690435
vt 0.641988 0.690435
vt 0.519782 0.766988
vt 0.639289 0.683891
vt 0.519783 0.765190
vt 0.641988 0.683891
vt 0.640004 0.683891
vt 0.640190 0.683891
vt 0.639289 0.690435
vt 0.639235 0.750000
vt 0.639235 0.690435
vt 0.375000 0.250000
vt 0.581555 0.500000
vt 0.581555 0.356561
vt 0.581555 0.302278
vt 0.581555 0.250000
vt 0.174709 0.640111
vt 0.174709 0.613619
vt 0.226061 0.613619
vt 0.226061 0.640111
vt 0.375000 0.640111
vt 0.125000 0.500000
vt 0.125000 0.640111
vt 0.375000 0.136381
vt 0.576440 0.250000
vt 0.576440 0.136381
vt 0.125000 0.613619
vt 0.576774 0.250000
vt 0.580475 0.250000
vt 0.564585 0.500000
vt 0.564585 0.640111
s 0
usemtl metal
f 37/1/1 38/2/1 5/3/1 3/4/1
f 11/5/2 15/6/2 2/7/2 1/8/2
f 36/9/3 8/10/3 28/11/3 30/12/3 6/13/3 37/1/3 3/4/3 25/14/3 24/15/3 23/16/3 13/17/3
f 34/18/4 32/19/4 2/20/4 15/21/4
f 41/22/2 7/23/2 39/24/2 40/25/2
f 31/26/3 35/27/3 11/28/3 1/29/3
f 35/27/3 36/9/3 13/17/3 11/28/3
f 3/4/2 5/3/2 26/30/2 25/31/2
f 11/28/4 13/17/4 18/17/4 16/28/4
f 33/32/4 34/18/4 20/21/4 19/33/4
f 18/34/2 19/35/2 20/6/2 16/5/2
f 13/34/5 14/35/5 19/35/5 18/34/5
f 15/6/1 11/5/1 16/5/1 20/6/1
f 39/36/3 29/37/3 22/38/3
f 23/25/2 22/24/2 14/35/2 13/34/2
f 25/31/2 26/30/2 21/23/2 24/22/2
f 1/39/5 2/40/5 32/41/5 31/42/5
f 22/38/4 29/37/4 33/32/4 14/33/4
f 38/2/4 10/43/4 26/44/4 5/3/4
f 24/22/6 21/23/6 7/23/6 41/22/6
f 26/44/4 10/43/4 27/45/4 21/46/4
f 7/46/4 27/45/4 29/37/4 39/38/4
f 23/16/4 24/15/4 41/15/4 40/16/4
f 22/24/7 23/25/7 40/25/7 39/24/7
f 27/45/8 7/46/8 21/46/8
f 44/4/2 45/3/2 43/7/2 42/8/2
f 46/26/9 48/1/9 44/4/9 42/29/9
f 51/47/10 52/48/10 48/1/10 46/42/10
f 52/48/11 53/49/11 45/3/11 44/4/11 48/1/11
f 53/49/4 50/50/4 43/20/4 45/3/4
f 50/41/12 53/2/13 52/48/14 51/47/15
f 46/42/16 42/39/16 43/40/16 50/51/16 51/47/16
f 58/1/17 59/2/17 55/3/17 54/4/17
f 54/4/18 55/3/18 47/7/18 49/8/18
f 56/26/3 58/1/3 54/4/3 49/29/3
f 59/2/4 57/19/4 47/20/4 55/3/4
f 49/39/19 47/40/19 57/41/19 56/42/19
f 37/1/1 6/4/1 62/3/1 38/2/1
f 64/5/20 60/8/20 61/7/20 89/52/20 88/53/20 90/54/20 91/55/20
f 72/11/3 13/10/3 36/9/3 8/17/3 68/16/3 69/15/3 70/14/3 6/4/3 37/1/3 3/13/3 73/12/3
f 61/20/4 32/19/4 34/18/4 94/56/4 93/57/4 92/58/4 89/59/4
f 63/23/20 75/22/20 74/25/20 96/60/20 95/61/20 97/62/20
f 31/26/3 60/29/3 64/28/3 35/27/3
f 35/27/3 64/28/3 8/17/3 36/9/3
f 6/4/20 70/31/20 71/30/20 62/3/20
f 64/28/4 65/28/4 66/17/4 8/17/4
f 94/63/4 34/18/4 33/32/4 98/64/4
f 66/34/20 65/5/20 99/55/20 100/65/20
f 8/34/5 66/34/5 100/65/5 101/65/5
f 99/55/1 65/5/1 64/5/1 91/55/1
f 102/66/3 29/37/3 103/66/3
f 104/60/20 68/25/20 8/34/20 101/65/20 105/67/20
f 70/31/20 69/22/20 67/23/20 71/30/20
f 60/39/5 31/42/5 32/41/5 61/40/5
f 98/68/4 33/32/4 29/37/4 102/66/4 106/69/4 107/70/4
f 38/2/4 62/3/4 71/44/4 10/43/4
f 69/22/6 75/22/6 63/23/6 67/23/6
f 71/44/4 67/46/4 27/45/4 10/43/4
f 103/71/4 29/37/4 27/45/4 63/46/4 97/72/4 108/73/4
f 68/16/4 74/16/4 75/15/4 69/15/4
f 96/60/7 74/25/7 68/25/7 104/60/7
f 27/45/8 67/46/8 63/46/8
f 78/4/20 76/8/20 77/7/20 79/3/20
f 46/26/21 76/29/21 78/4/21 48/1/21
f 83/47/22 46/42/22 48/1/22 84/48/22
f 84/48/23 48/1/23 78/4/23 79/3/23 85/49/23
f 85/49/4 79/3/4 77/20/4 82/50/4
f 82/41/24 83/47/25 84/48/26 85/2/27
f 83/47/28 82/51/28 77/40/28 76/39/28 46/42/28
f 58/1/17 86/4/17 87/3/17 59/2/17
f 86/4/29 81/8/29 80/7/29 87/3/29
f 56/26/3 81/29/3 86/4/3 58/1/3
f 59/2/4 87/3/4 80/20/4 57/19/4
f 81/39/19 56/42/19 57/41/19 80/40/19
usemtl 
f 4/74/20 9/13/20 93/75/20 94/76/20 98/77/20 107/78/20
f 101/79/4 100/80/4 99/81/4 91/82/4 90/83/4 9/13/4 4/84/4 105/85/4
f 95/86/5 12/74/5 108/87/5 97/88/5
f 105/85/30 4/84/30 12/84/30 95/89/30 96/89/30 104/85/30
f 102/90/20 108/87/20 12/74/20 4/74/20 107/78/20 106/91/20 103/90/20
f 92/92/1 17/13/1 88/83/1 89/93/1
f 88/83/31 17/13/31 9/13/31 90/83/31
f 9/13/20 17/13/20 92/92/20 93/75/20
